<svg xmlns="http://www.w3.org/2000/svg" viewBox="0 0 1080 840" width="1080" height="840" font-family="Segoe UI, Roboto, Helvetica, Arial, sans-serif"><rect width="1080" height="840" fill="#F1F5F9"/><rect x="0.5" y="0.5" width="1079" height="839" rx="6" fill="none" stroke="#E2E8F0"/><text x="540.0" y="42.0" text-anchor="middle" font-family="Segoe UI, Roboto, Helvetica, Arial, sans-serif" font-size="27" font-weight="800" fill="#0F172A">Quality AI Intelligence</text><text x="540.0" y="66.0" text-anchor="middle" font-family="Segoe UI, Roboto, Helvetica, Arial, sans-serif" font-size="13" font-weight="500" fill="#64748B">System Architecture — automated GR&amp;R, SPC, and 24/7 alerting</text><rect x="32" y="100" width="1016" height="104" rx="18" fill="#FFFFFF" opacity="0.55" stroke="#E2E8F0" stroke-width="1"/><rect x="48.0" y="88.0" width="107" height="24" rx="12" fill="#0EA5E9"/><text x="101.6" y="104.0" text-anchor="middle" font-family="Segoe UI, Roboto, Helvetica, Arial, sans-serif" font-size="11.5" font-weight="700" fill="#FFFFFF" letter-spacing="0.6">DATA INGRESS</text><rect x="76.2" y="111.0" width="212" height="88" rx="13" fill="#0F172A" opacity="0.06"/><rect x="75.2" y="108" width="212" height="88" rx="13" fill="#FFFFFF" stroke="#E2E8F0" stroke-width="1.2"/><rect x="75.2" y="108" width="212" height="4" rx="2" fill="#0EA5E9"/><svg x="166.2" y="121.0" width="30.0" height="30.0" viewBox="0 0 24 24"><path fill="#231F20" d="M9.71 2.136a1.43 1.43 0 0 0-2.047 0h-.007a1.48 1.48 0 0 0-.421 1.042c0 .41.161.777.422 1.039l.007.007c.257.264.616.426 1.019.426.404 0 .766-.162 1.027-.426l.003-.007c.261-.262.421-.629.421-1.039 0-.408-.159-.777-.421-1.042H9.71zM8.683 22.295c.404 0 .766-.167 1.027-.429l.003-.008c.261-.261.421-.631.421-1.036 0-.41-.159-.778-.421-1.044H9.71a1.42 1.42 0 0 0-1.027-.432 1.4 1.4 0 0 0-1.02.432h-.007c-.26.266-.422.634-.422 1.044 0 .406.161.775.422 1.036l.007.008c.258.262.617.429 1.02.429zm7.89-4.462c.359-.096.683-.33.882-.684l.027-.052a1.47 1.47 0 0 0 .114-1.067 1.454 1.454 0 0 0-.675-.896l-.021-.014a1.425 1.425 0 0 0-1.078-.132c-.36.091-.684.335-.881.686-.2.349-.241.75-.146 1.119.099.363.33.691.675.896h.002c.346.203.737.239 1.101.144zm-6.405-7.342a2.083 2.083 0 0 0-1.485-.627c-.58 0-1.103.242-1.482.627-.378.385-.612.916-.612 1.507s.233 1.124.612 1.514a2.08 2.08 0 0 0 2.967 0c.379-.39.612-.923.612-1.514s-.233-1.122-.612-1.507zm-.835-2.51c.843.141 1.6.552 2.178 1.144h.004c.092.093.182.196.265.299l1.446-.851a3.176 3.176 0 0 1-.047-1.808 3.149 3.149 0 0 1 1.456-1.926l.025-.016a3.062 3.062 0 0 1 2.345-.306c.77.21 1.465.721 1.898 1.482v.002c.431.757.518 1.626.313 2.408a3.145 3.145 0 0 1-1.456 1.928l-.198.118h-.02a3.095 3.095 0 0 1-2.154.201 3.127 3.127 0 0 1-1.514-.944l-1.444.848a4.162 4.162 0 0 1 0 2.879l1.444.846c.413-.47.939-.789 1.514-.944a3.041 3.041 0 0 1 2.371.319l.048.023v.002a3.17 3.17 0 0 1 1.408 1.906 3.215 3.215 0 0 1-.313 2.405l-.026.053-.003-.005a3.147 3.147 0 0 1-1.867 1.436 3.096 3.096 0 0 1-2.371-.318v-.006a3.156 3.156 0 0 1-1.456-1.927 3.175 3.175 0 0 1 .047-1.805l-1.446-.848a3.905 3.905 0 0 1-.265.294l-.004.005a3.938 3.938 0 0 1-2.178 1.138v1.699a3.09 3.09 0 0 1 1.56.862l.002.004c.565.572.914 1.368.914 2.243 0 .873-.35 1.664-.914 2.239l-.002.009a3.1 3.1 0 0 1-2.21.931 3.1 3.1 0 0 1-2.206-.93h-.002v-.009a3.186 3.186 0 0 1-.916-2.239c0-.875.35-1.672.916-2.243v-.004h.002a3.1 3.1 0 0 1 1.558-.862v-1.699a3.926 3.926 0 0 1-2.176-1.138l-.006-.005a4.098 4.098 0 0 1-1.173-2.874c0-1.122.452-2.136 1.173-2.872h.006a3.947 3.947 0 0 1 2.176-1.144V6.289a3.137 3.137 0 0 1-1.558-.864h-.002v-.004a3.192 3.192 0 0 1-.916-2.243c0-.871.35-1.669.916-2.243l.002-.002A3.084 3.084 0 0 1 8.683 0c.861 0 1.641.355 2.21.932v.002h.002c.565.574.914 1.372.914 2.243 0 .876-.35 1.667-.914 2.243l-.002.005a3.142 3.142 0 0 1-1.56.864v1.692zm8.121-1.129l-.012-.019a1.452 1.452 0 0 0-.87-.668 1.43 1.43 0 0 0-1.103.146h.002c-.347.2-.58.529-.677.896-.095.365-.054.768.146 1.119l.007.009c.2.347.519.579.874.673.357.103.755.059 1.098-.144l.019-.009a1.47 1.47 0 0 0 .657-.885 1.493 1.493 0 0 0-.141-1.118"/></svg><text x="181.2" y="165.0" text-anchor="middle" font-family="Segoe UI, Roboto, Helvetica, Arial, sans-serif" font-size="12.5" font-weight="600" fill="#1E293B">Apache Kafka</text><text x="181.2" y="179.5" text-anchor="middle" font-family="Segoe UI, Roboto, Helvetica, Arial, sans-serif" font-size="12.5" font-weight="600" fill="#1E293B">stream</text><rect x="315.4" y="111.0" width="212" height="88" rx="13" fill="#0F172A" opacity="0.06"/><rect x="314.4" y="108" width="212" height="88" rx="13" fill="#FFFFFF" stroke="#E2E8F0" stroke-width="1.2"/><rect x="314.4" y="108" width="212" height="4" rx="2" fill="#0EA5E9"/><g stroke="#0284C7" stroke-width="1.8" fill="none" stroke-linejoin="round" stroke-linecap="round"><path d="M411.4,124 h10 l6,6 v16 h-16 z"/><path d="M421.4,124 v6 h6"/><path d="M414.4,136 h9 M414.4,140 h9 M414.4,144 h6"/></g><text x="420.4" y="165.0" text-anchor="middle" font-family="Segoe UI, Roboto, Helvetica, Arial, sans-serif" font-size="12.5" font-weight="600" fill="#1E293B">CSV / Excel</text><text x="420.4" y="179.5" text-anchor="middle" font-family="Segoe UI, Roboto, Helvetica, Arial, sans-serif" font-size="12.5" font-weight="600" fill="#1E293B">upload</text><rect x="554.6" y="111.0" width="212" height="88" rx="13" fill="#0F172A" opacity="0.06"/><rect x="553.6" y="108" width="212" height="88" rx="13" fill="#FFFFFF" stroke="#E2E8F0" stroke-width="1.2"/><rect x="553.6" y="108" width="212" height="4" rx="2" fill="#0EA5E9"/><g stroke="#0284C7" stroke-width="1.7" fill="none"><rect x="648.6" y="125" width="22" height="9" rx="2.5"/><rect x="648.6" y="138" width="22" height="9" rx="2.5"/></g><circle cx="653.6" cy="129.5" r="1.5" fill="#0284C7"/><circle cx="653.6" cy="142.5" r="1.5" fill="#0284C7"/><text x="659.6" y="165.0" text-anchor="middle" font-family="Segoe UI, Roboto, Helvetica, Arial, sans-serif" font-size="12.5" font-weight="600" fill="#1E293B">MES / QMS</text><text x="659.6" y="179.5" text-anchor="middle" font-family="Segoe UI, Roboto, Helvetica, Arial, sans-serif" font-size="12.5" font-weight="600" fill="#1E293B">auto-pull (timed)</text><rect x="793.8" y="111.0" width="212" height="88" rx="13" fill="#0F172A" opacity="0.06"/><rect x="792.8" y="108" width="212" height="88" rx="13" fill="#FFFFFF" stroke="#E2E8F0" stroke-width="1.2"/><rect x="792.8" y="108" width="212" height="4" rx="2" fill="#0EA5E9"/><path d="M901.8,124 L892.8,139 L897.8,139 L895.8,148 L905.8,133 L899.8,133 Z" fill="#0284C7"/><text x="898.8" y="165.0" text-anchor="middle" font-family="Segoe UI, Roboto, Helvetica, Arial, sans-serif" font-size="12.5" font-weight="600" fill="#1E293B">REST</text><text x="898.8" y="179.5" text-anchor="middle" font-family="Segoe UI, Roboto, Helvetica, Arial, sans-serif" font-size="12.5" font-weight="600" fill="#1E293B">push</text><rect x="32" y="232" width="730" height="150" rx="18" fill="#FFFFFF" opacity="0.55" stroke="#E2E8F0" stroke-width="1"/><rect x="48.0" y="220.0" width="136" height="24" rx="12" fill="#6366F1"/><text x="115.8" y="236.0" text-anchor="middle" font-family="Segoe UI, Roboto, Helvetica, Arial, sans-serif" font-size="11.5" font-weight="700" fill="#FFFFFF" letter-spacing="0.6">ARAD API SERVICE</text><svg x="59.0" y="247.0" width="22.0" height="22.0" viewBox="0 0 24 24"><path fill="#009688" d="M12 .0387C5.3729.0384.0003 5.3931 0 11.9988c-.001 6.6066 5.372 11.9628 12 11.9625 6.628.0003 12.001-5.3559 12-11.9625-.0003-6.6057-5.3729-11.9604-12-11.96m-.829 5.4153h7.55l-7.5805 5.3284h5.1828L5.279 18.5436q2.9466-6.5444 5.892-13.0896"/></svg><text x="88.0" y="262.0" text-anchor="start" font-family="Segoe UI, Roboto, Helvetica, Arial, sans-serif" font-size="11.5" font-weight="600" fill="#475569">FastAPI runtime · REST API · auth · encrypted settings</text><rect x="60.6" y="285.0" width="160" height="86" rx="13" fill="#0F172A" opacity="0.06"/><rect x="59.6" y="282" width="160" height="86" rx="13" fill="#FFFFFF" stroke="#E2E8F0" stroke-width="1.2"/><rect x="59.6" y="282" width="160" height="4" rx="2" fill="#6366F1"/><g stroke="#6366F1" stroke-width="1.9" fill="none" stroke-linecap="round"><path d="M128.6,318 A11,11 0 0 1 150.6,318"/><line x1="139.6" y1="318" x2="145.6" y2="308"/></g><circle cx="139.6" cy="318" r="2" fill="#6366F1"/><text x="139.6" y="337.0" text-anchor="middle" font-family="Segoe UI, Roboto, Helvetica, Arial, sans-serif" font-size="12" font-weight="600" fill="#1E293B">GR&amp;R engine</text><text x="139.6" y="351.5" text-anchor="middle" font-family="Segoe UI, Roboto, Helvetica, Arial, sans-serif" font-size="12" font-weight="600" fill="#1E293B">AIAG Xbar-R</text><rect x="232.2" y="285.0" width="160" height="86" rx="13" fill="#0F172A" opacity="0.06"/><rect x="231.2" y="282" width="160" height="86" rx="13" fill="#FFFFFF" stroke="#E2E8F0" stroke-width="1.2"/><rect x="231.2" y="282" width="160" height="4" rx="2" fill="#6366F1"/><g stroke="#6366F1" stroke-width="1.9" fill="none" stroke-linecap="round" stroke-linejoin="round"><path d="M300.2,301 V321 H322.2"/><path d="M303.2,314 l5,-6 l5,4 l6,-9"/></g><text x="311.2" y="337.0" text-anchor="middle" font-family="Segoe UI, Roboto, Helvetica, Arial, sans-serif" font-size="12" font-weight="600" fill="#1E293B">SPC engine</text><text x="311.2" y="351.5" text-anchor="middle" font-family="Segoe UI, Roboto, Helvetica, Arial, sans-serif" font-size="12" font-weight="600" fill="#1E293B">I-MR + Nelson</text><rect x="403.8" y="285.0" width="160" height="86" rx="13" fill="#0F172A" opacity="0.06"/><rect x="402.8" y="282" width="160" height="86" rx="13" fill="#FFFFFF" stroke="#E2E8F0" stroke-width="1.2"/><rect x="402.8" y="282" width="160" height="4" rx="2" fill="#6366F1"/><g stroke="#6366F1" stroke-width="1.7" fill="none"><circle cx="482.8" cy="312" r="11"/><circle cx="482.8" cy="312" r="6"/></g><circle cx="482.8" cy="312" r="2.3" fill="#6366F1"/><text x="482.8" y="337.0" text-anchor="middle" font-family="Segoe UI, Roboto, Helvetica, Arial, sans-serif" font-size="12" font-weight="600" fill="#1E293B">Autonomous</text><text x="482.8" y="351.5" text-anchor="middle" font-family="Segoe UI, Roboto, Helvetica, Arial, sans-serif" font-size="12" font-weight="600" fill="#1E293B">monitor · 30s</text><rect x="575.4" y="285.0" width="160" height="86" rx="13" fill="#0F172A" opacity="0.06"/><rect x="574.4" y="282" width="160" height="86" rx="13" fill="#FFFFFF" stroke="#E2E8F0" stroke-width="1.2"/><rect x="574.4" y="282" width="160" height="4" rx="2" fill="#6366F1"/><svg x="616.4" y="301.0" width="22.0" height="22.0" viewBox="0 0 24 24"><path fill="#8E75B2" d="M11.04 19.32Q12 21.51 12 24q0-2.49.93-4.68.96-2.19 2.58-3.81t3.81-2.55Q21.51 12 24 12q-2.49 0-4.68-.93a12.3 12.3 0 0 1-3.81-2.58 12.3 12.3 0 0 1-2.58-3.81Q12 2.49 12 0q0 2.49-.96 4.68-.93 2.19-2.55 3.81a12.3 12.3 0 0 1-3.81 2.58Q2.49 12 0 12q2.49 0 4.68.96 2.19.93 3.81 2.55t2.55 3.81"/></svg><svg x="643.4" y="301.0" width="22.0" height="22.0" viewBox="0 0 24 24"><path fill="#D97757" d="M17.3041 3.541h-3.6718l6.696 16.918H24Zm-10.6082 0L0 20.459h3.7442l1.3693-3.5527h7.0052l1.3693 3.5528h3.7442L10.5363 3.5409Zm-.3712 10.2232 2.2914-5.9456 2.2914 5.9456Z"/></svg><svg x="670.4" y="301.0" width="22.0" height="22.0" viewBox="0 0 24 24"><path fill="#111827" d="M22.2819 9.8211a5.9847 5.9847 0 0 0-.5157-4.9108 6.0462 6.0462 0 0 0-6.5098-2.9A6.0651 6.0651 0 0 0 4.9807 4.1818a5.9847 5.9847 0 0 0-3.9977 2.9 6.0462 6.0462 0 0 0 .7427 7.0966 5.98 5.98 0 0 0 .511 4.9107 6.051 6.051 0 0 0 6.5146 2.9001A5.9847 5.9847 0 0 0 13.2599 24a6.0557 6.0557 0 0 0 5.7718-4.2058 5.9894 5.9894 0 0 0 3.9977-2.9001 6.0557 6.0557 0 0 0-.7475-7.0729zm-9.022 12.6081a4.4755 4.4755 0 0 1-2.8764-1.0408l.1419-.0804 4.7783-2.7582a.7948.7948 0 0 0 .3927-.6813v-6.7369l2.02 1.1686a.071.071 0 0 1 .038.052v5.5826a4.504 4.504 0 0 1-4.4945 4.4944zm-9.6607-4.1254a4.4708 4.4708 0 0 1-.5346-3.0137l.142.0852 4.783 2.7582a.7712.7712 0 0 0 .7806 0l5.8428-3.3685v2.3324a.0804.0804 0 0 1-.0332.0615L9.74 19.9502a4.4992 4.4992 0 0 1-6.1408-1.6464zM2.3408 7.8956a4.485 4.485 0 0 1 2.3655-1.9728V11.6a.7664.7664 0 0 0 .3879.6765l5.8144 3.3543-2.0201 1.1685a.0757.0757 0 0 1-.071 0l-4.8303-2.7865A4.504 4.504 0 0 1 2.3408 7.872zm16.5963 3.8558L13.1038 8.364 15.1192 7.2a.0757.0757 0 0 1 .071 0l4.8303 2.7913a4.4944 4.4944 0 0 1-.6765 8.1042v-5.6772a.79.79 0 0 0-.407-.667zm2.0107-3.0231l-.142-.0852-4.7735-2.7818a.7759.7759 0 0 0-.7854 0L9.409 9.2297V6.8974a.0662.0662 0 0 1 .0284-.0615l4.8303-2.7866a4.4992 4.4992 0 0 1 6.6802 4.66zM8.3065 12.863l-2.02-1.1638a.0804.0804 0 0 1-.038-.0567V6.0742a4.4992 4.4992 0 0 1 7.3757-3.4537l-.142.0805L8.704 5.459a.7948.7948 0 0 0-.3927.6813zm1.0976-2.3654l2.602-1.4998 2.6069 1.4998v2.9994l-2.5974 1.4997-2.6067-1.4997Z"/></svg><text x="654.4" y="350.0" text-anchor="middle" font-family="Segoe UI, Roboto, Helvetica, Arial, sans-serif" font-size="11.5" font-weight="600" fill="#1E293B">AI summary router</text><text x="804.0" y="230.0" text-anchor="start" font-family="Segoe UI, Roboto, Helvetica, Arial, sans-serif" font-size="11" font-weight="700" fill="#EC4899" letter-spacing="0.6">FRONTEND</text><rect x="801.0" y="235.0" width="232" height="150" rx="13" fill="#0F172A" opacity="0.06"/><rect x="800.0" y="232" width="232" height="150" rx="13" fill="#FFFFFF" stroke="#E2E8F0" stroke-width="1.2"/><rect x="800.0" y="232" width="232" height="4" rx="2" fill="#EC4899"/><svg x="899.0" y="273.0" width="34.0" height="34.0" viewBox="0 0 24 24"><path fill="#000000" d="M18.665 21.978C16.758 23.255 14.465 24 12 24 5.377 24 0 18.623 0 12S5.377 0 12 0s12 5.377 12 12c0 3.583-1.574 6.801-4.067 9.001L9.219 7.2H7.2v9.596h1.615V9.251l9.85 12.727Zm-3.332-8.533 1.6 2.061V7.2h-1.6v6.245Z"/></svg><text x="916.0" y="351.0" text-anchor="middle" font-family="Segoe UI, Roboto, Helvetica, Arial, sans-serif" font-size="13" font-weight="600" fill="#1E293B">Dashboard</text><text x="916.0" y="365.5" text-anchor="middle" font-family="Segoe UI, Roboto, Helvetica, Arial, sans-serif" font-size="13" font-weight="600" fill="#1E293B">Next.js</text><line x1="771" y1="307" x2="791" y2="307" stroke="#94A3B8" stroke-width="2.2"/><path d="M771,301 L771,313 L762,307 Z" fill="#94A3B8"/><path d="M791,301 L791,313 L800,307 Z" fill="#94A3B8"/><text x="781.0" y="299.0" text-anchor="middle" font-family="Segoe UI, Roboto, Helvetica, Arial, sans-serif" font-size="10.5" font-weight="600" fill="#64748B">REST</text><rect x="32" y="416" width="1016" height="104" rx="18" fill="#FFFFFF" opacity="0.55" stroke="#E2E8F0" stroke-width="1"/><rect x="48.0" y="404.0" width="72" height="24" rx="12" fill="#10B981"/><text x="83.8" y="420.0" text-anchor="middle" font-family="Segoe UI, Roboto, Helvetica, Arial, sans-serif" font-size="11.5" font-weight="700" fill="#FFFFFF" letter-spacing="0.6">STORAGE</text><rect x="203.7" y="427.0" width="260" height="88" rx="13" fill="#0F172A" opacity="0.06"/><rect x="202.7" y="424" width="260" height="88" rx="13" fill="#FFFFFF" stroke="#E2E8F0" stroke-width="1.2"/><rect x="202.7" y="424" width="260" height="4" rx="2" fill="#10B981"/><svg x="317.7" y="437.0" width="30.0" height="30.0" viewBox="0 0 24 24"><path fill="#C77A0A" d="M5.537.763c-1.167.7-2.21 1.582-3.08 2.61L3.79 4.836a10.422 10.422 0 013.627-2.881zm13.028.085l-1.991 1.12a10.381 10.381 0 013.762 3.07l1.18-1.654a12.371 12.371 0 00-2.95-2.536zm-6.564.752a9.788 9.788 0 00-4.131.91l.59 1.011a8.542 8.542 0 013.541-.762c1.261 0 2.457.274 3.534.76l.59-1.012a9.81 9.81 0 00-4.124-.907zM11.4 3.535l-.55 6.626h.003l-.002.04c.003.111.013.216.033.318.01.112.043.227.097.342.114.289.298.505.516.607.05.04.105.075.158.111a.98.98 0 01.033.02v.004l6.68 3.596.348-.476-6.058-4.6c-.007 0-.01-.005-.014-.008L12 3.535zm1.423.052c.19.234.361.523.502.855 3.155.604 5.54 3.325 5.54 6.596 0 .877-.176 1.712-.484 2.48a3.7 3.7 0 01.52.76 7.314 7.314 0 00.754-3.24c0-3.868-2.99-7.05-6.832-7.45zm-2.284.095c-3.527.667-6.19 3.708-6.19 7.356 0 2.584 1.335 4.863 3.367 6.21a9.84 9.84 0 01.295-.743c-1.74-1.219-2.874-3.214-2.874-5.467 0-3.054 2.082-5.632 4.932-6.45.128-.351.289-.656.47-.906zm9.15 1.675l-.801.893a8.101 8.101 0 011.551 4.777c0 2.916-1.542 5.481-3.872 6.952.104.388.188.792.251 1.209 2.87-1.632 4.802-4.677 4.802-8.16a9.224 9.224 0 00-1.93-5.67zm-15.38.007a9.25 9.25 0 00-1.93 5.665c0 3.507 1.954 6.567 4.858 8.19.063-.418.144-.822.248-1.206-2.36-1.468-3.923-4.045-3.923-6.984 0-1.777.573-3.422 1.549-4.772zm9.314.043c.044.203.08.416.107.64a5.332 5.332 0 013.213 2.912l.577-.148a5.942 5.942 0 00-3.897-3.404zm-3.816.187a5.939 5.939 0 00-3.319 3.198l.58.148A5.324 5.324 0 019.73 6.257c.017-.227.04-.45.077-.663zM6.733 9.672l-.62.63.315.614 1.727.618.942-.618-.312-.923zm10.615 0l-2.048.321-.315.923.942.618 1.73-.618.315-.614zM6.1 11.869A5.824 5.824 0 008.42 15.7c.1-.17.204-.335.315-.493a5.252 5.252 0 01-2.038-3.34zm11.206 0c-.03.18-.071.355-.118.529.174.138.338.272.493.41.097-.302.174-.617.22-.94zm-15.679.217L0 14.158c.966 3.661 3.638 6.65 7.132 8.111a9.399 9.399 0 01-.05-1.031c0-.375.017-.747.05-1.111-3.024-1.563-5.166-4.544-5.505-8.041zm20.707.055c-.352 3.45-2.464 6.394-5.441 7.957.033.374.05.755.053 1.136 0 .377-.017.71-.05 1.005 3.506-1.488 6.175-4.522 7.104-8.223zm-6.544 2.617a5.31 5.31 0 01-.486.42c.11.158.218.322.318.493.265-.2.513-.42.74-.66a10.61 10.61 0 01-.572-.253zm1.502.559a6.9 6.9 0 01-1.25 1.156c.106.236.207.485.294.741a7.667 7.667 0 001.857-1.772 3.554 3.554 0 01-.9-.125zm-2.988.63l-2.303.913-2.307-.91-.587 1.435 2.448.946c-.134.46-.568.798-1.08.798-.034 0-.07-.004-.104-.007l-.5.686c.188.063.39.096.6.096.621 0 1.17-.289 1.52-.738a1.924 1.924 0 002.183.62l-.49-.67a1.122 1.122 0 01-1.26-.805l2.47-.926zm1.156 4.775c-1.09.377-2.256.58-3.476.58-1.17 0-2.29-.186-3.34-.534.231.88.59 1.654 1.05 2.262.743.134 1.509.207 2.294.207.835 0 1.65-.082 2.437-.236.453-.61.807-1.39 1.035-2.28z"/></svg><text x="332.7" y="481.0" text-anchor="middle" font-family="Segoe UI, Roboto, Helvetica, Arial, sans-serif" font-size="11.5" font-weight="600" fill="#1E293B">TimescaleDB</text><text x="332.7" y="495.5" text-anchor="middle" font-family="Segoe UI, Roboto, Helvetica, Arial, sans-serif" font-size="11.5" font-weight="600" fill="#1E293B">hypertable · settings · audit</text><rect x="618.3" y="427.0" width="260" height="88" rx="13" fill="#0F172A" opacity="0.06"/><rect x="617.3" y="424" width="260" height="88" rx="13" fill="#FFFFFF" stroke="#E2E8F0" stroke-width="1.2"/><rect x="617.3" y="424" width="260" height="4" rx="2" fill="#10B981"/><svg x="732.3" y="437.0" width="30.0" height="30.0" viewBox="0 0 24 24"><path fill="#DC382D" d="M22.71 13.145c-1.66 2.092-3.452 4.483-7.038 4.483-3.203 0-4.397-2.825-4.48-5.12.701 1.484 2.073 2.685 4.214 2.63 4.117-.133 6.94-3.852 6.94-7.239 0-4.05-3.022-6.972-8.268-6.972-3.752 0-8.4 1.428-11.455 3.685C2.59 6.937 3.885 9.958 4.35 9.626c2.648-1.904 4.748-3.13 6.784-3.744C8.12 9.244.886 17.05 0 18.425c.1 1.261 1.66 4.648 2.424 4.648.232 0 .431-.133.664-.365a100.49 100.49 0 0 0 5.54-6.765c.222 3.104 1.748 6.898 6.014 6.898 3.819 0 7.604-2.756 9.33-8.965.2-.764-.73-1.361-1.261-.73zm-4.349-5.013c0 1.959-1.926 2.922-3.685 2.922-.941 0-1.664-.247-2.235-.568 1.051-1.592 2.092-3.225 3.21-4.973 1.972.334 2.71 1.43 2.71 2.619z"/></svg><text x="747.3" y="481.0" text-anchor="middle" font-family="Segoe UI, Roboto, Helvetica, Arial, sans-serif" font-size="12.5" font-weight="600" fill="#1E293B">Redis</text><text x="747.3" y="495.5" text-anchor="middle" font-family="Segoe UI, Roboto, Helvetica, Arial, sans-serif" font-size="12.5" font-weight="600" fill="#1E293B">cache · rate-limit</text><rect x="32" y="548" width="1016" height="104" rx="18" fill="#FFFFFF" opacity="0.55" stroke="#E2E8F0" stroke-width="1"/><rect x="48.0" y="536.0" width="150" height="24" rx="12" fill="#F59E0B"/><text x="122.9" y="552.0" text-anchor="middle" font-family="Segoe UI, Roboto, Helvetica, Arial, sans-serif" font-size="11.5" font-weight="700" fill="#FFFFFF" letter-spacing="0.6">ALERT DESTINATIONS</text><rect x="76.2" y="559.0" width="212" height="88" rx="13" fill="#0F172A" opacity="0.06"/><rect x="75.2" y="556" width="212" height="88" rx="13" fill="#FFFFFF" stroke="#E2E8F0" stroke-width="1.2"/><rect x="75.2" y="556" width="212" height="4" rx="2" fill="#F59E0B"/><svg x="166.2" y="569.0" width="30.0" height="30.0" viewBox="0 0 24 24"><path fill="#4A154B" d="M5.042 15.165a2.528 2.528 0 0 1-2.52 2.523A2.528 2.528 0 0 1 0 15.165a2.527 2.527 0 0 1 2.522-2.52h2.52v2.52zM6.313 15.165a2.527 2.527 0 0 1 2.521-2.52 2.527 2.527 0 0 1 2.521 2.52v6.313A2.528 2.528 0 0 1 8.834 24a2.528 2.528 0 0 1-2.521-2.522v-6.313zM8.834 5.042a2.528 2.528 0 0 1-2.521-2.52A2.528 2.528 0 0 1 8.834 0a2.528 2.528 0 0 1 2.521 2.522v2.52H8.834zM8.834 6.313a2.528 2.528 0 0 1 2.521 2.521 2.528 2.528 0 0 1-2.521 2.521H2.522A2.528 2.528 0 0 1 0 8.834a2.528 2.528 0 0 1 2.522-2.521h6.312zM18.956 8.834a2.528 2.528 0 0 1 2.522-2.521A2.528 2.528 0 0 1 24 8.834a2.528 2.528 0 0 1-2.522 2.521h-2.522V8.834zM17.688 8.834a2.528 2.528 0 0 1-2.523 2.521 2.527 2.527 0 0 1-2.52-2.521V2.522A2.527 2.527 0 0 1 15.165 0a2.528 2.528 0 0 1 2.523 2.522v6.312zM15.165 18.956a2.528 2.528 0 0 1 2.523 2.522A2.528 2.528 0 0 1 15.165 24a2.527 2.527 0 0 1-2.52-2.522v-2.522h2.52zM15.165 17.688a2.527 2.527 0 0 1-2.52-2.523 2.526 2.526 0 0 1 2.52-2.52h6.313A2.527 2.527 0 0 1 24 15.165a2.528 2.528 0 0 1-2.522 2.523h-6.313z"/></svg><text x="181.2" y="613.0" text-anchor="middle" font-family="Segoe UI, Roboto, Helvetica, Arial, sans-serif" font-size="12.5" font-weight="600" fill="#1E293B">Slack</text><text x="181.2" y="627.5" text-anchor="middle" font-family="Segoe UI, Roboto, Helvetica, Arial, sans-serif" font-size="12.5" font-weight="600" fill="#1E293B">channel alerts</text><rect x="315.4" y="559.0" width="212" height="88" rx="13" fill="#0F172A" opacity="0.06"/><rect x="314.4" y="556" width="212" height="88" rx="13" fill="#FFFFFF" stroke="#E2E8F0" stroke-width="1.2"/><rect x="314.4" y="556" width="212" height="4" rx="2" fill="#F59E0B"/><g stroke="#B45309" stroke-width="1.7" fill="none" stroke-linejoin="round"><rect x="408.4" y="575" width="24" height="18" rx="2.5"/><path d="M409.4,576.5 l11,8 l11,-8"/></g><text x="420.4" y="613.0" text-anchor="middle" font-family="Segoe UI, Roboto, Helvetica, Arial, sans-serif" font-size="12.5" font-weight="600" fill="#1E293B">Email</text><text x="420.4" y="627.5" text-anchor="middle" font-family="Segoe UI, Roboto, Helvetica, Arial, sans-serif" font-size="12.5" font-weight="600" fill="#1E293B">SMTP</text><rect x="554.6" y="559.0" width="212" height="88" rx="13" fill="#0F172A" opacity="0.06"/><rect x="553.6" y="556" width="212" height="88" rx="13" fill="#FFFFFF" stroke="#E2E8F0" stroke-width="1.2"/><rect x="553.6" y="556" width="212" height="4" rx="2" fill="#F59E0B"/><svg x="644.6" y="569.0" width="30.0" height="30.0" viewBox="0 0 24 24"><path fill="#F22F46" d="M12 0C5.381-.008.008 5.352 0 11.971V12c0 6.64 5.359 12 12 12 6.64 0 12-5.36 12-12 0-6.641-5.36-12-12-12zm0 20.801c-4.846.015-8.786-3.904-8.801-8.75V12c-.014-4.846 3.904-8.786 8.75-8.801H12c4.847-.014 8.786 3.904 8.801 8.75V12c.015 4.847-3.904 8.786-8.75 8.801H12zm5.44-11.76c0 1.359-1.12 2.479-2.481 2.479-1.366-.007-2.472-1.113-2.479-2.479 0-1.361 1.12-2.481 2.479-2.481 1.361 0 2.481 1.12 2.481 2.481zm0 5.919c0 1.36-1.12 2.48-2.481 2.48-1.367-.008-2.473-1.114-2.479-2.48 0-1.359 1.12-2.479 2.479-2.479 1.361-.001 2.481 1.12 2.481 2.479zm-5.919 0c0 1.36-1.12 2.48-2.479 2.48-1.368-.007-2.475-1.113-2.481-2.48 0-1.359 1.12-2.479 2.481-2.479 1.358-.001 2.479 1.12 2.479 2.479zm0-5.919c0 1.359-1.12 2.479-2.479 2.479-1.367-.007-2.475-1.112-2.481-2.479 0-1.361 1.12-2.481 2.481-2.481 1.358 0 2.479 1.12 2.479 2.481z"/></svg><text x="659.6" y="613.0" text-anchor="middle" font-family="Segoe UI, Roboto, Helvetica, Arial, sans-serif" font-size="12.5" font-weight="600" fill="#1E293B">SMS</text><text x="659.6" y="627.5" text-anchor="middle" font-family="Segoe UI, Roboto, Helvetica, Arial, sans-serif" font-size="12.5" font-weight="600" fill="#1E293B">Twilio</text><rect x="793.8" y="559.0" width="212" height="88" rx="13" fill="#0F172A" opacity="0.06"/><rect x="792.8" y="556" width="212" height="88" rx="13" fill="#FFFFFF" stroke="#E2E8F0" stroke-width="1.2"/><rect x="792.8" y="556" width="212" height="4" rx="2" fill="#F59E0B"/><svg x="883.8" y="569.0" width="30.0" height="30.0" viewBox="0 0 24 24"><path fill="#0052CC" d="M11.571 11.513H0a5.218 5.218 0 0 0 5.232 5.215h2.13v2.057A5.215 5.215 0 0 0 12.575 24V12.518a1.005 1.005 0 0 0-1.005-1.005zm5.723-5.756H5.736a5.215 5.215 0 0 0 5.215 5.214h2.129v2.058a5.218 5.218 0 0 0 5.215 5.214V6.758a1.001 1.001 0 0 0-1.001-1.001zM23.013 0H11.455a5.215 5.215 0 0 0 5.215 5.215h2.129v2.057A5.215 5.215 0 0 0 24 12.483V1.005A1.001 1.001 0 0 0 23.013 0Z"/></svg><text x="898.8" y="613.0" text-anchor="middle" font-family="Segoe UI, Roboto, Helvetica, Arial, sans-serif" font-size="12.5" font-weight="600" fill="#1E293B">JIRA</text><text x="898.8" y="627.5" text-anchor="middle" font-family="Segoe UI, Roboto, Helvetica, Arial, sans-serif" font-size="12.5" font-weight="600" fill="#1E293B">auto ticket</text><rect x="32" y="680" width="1016" height="104" rx="18" fill="#FFFFFF" opacity="0.55" stroke="#E2E8F0" stroke-width="1"/><rect x="48.0" y="668.0" width="114" height="24" rx="12" fill="#8B5CF6"/><text x="105.2" y="684.0" text-anchor="middle" font-family="Segoe UI, Roboto, Helvetica, Arial, sans-serif" font-size="11.5" font-weight="700" fill="#FFFFFF" letter-spacing="0.6">OBSERVABILITY</text><rect x="136.0" y="691.0" width="212" height="88" rx="13" fill="#0F172A" opacity="0.06"/><rect x="135.0" y="688" width="212" height="88" rx="13" fill="#FFFFFF" stroke="#E2E8F0" stroke-width="1.2"/><rect x="135.0" y="688" width="212" height="4" rx="2" fill="#8B5CF6"/><svg x="226.0" y="701.0" width="30.0" height="30.0" viewBox="0 0 24 24"><path fill="#E6522C" d="M12 0C5.373 0 0 5.372 0 12c0 6.627 5.373 12 12 12s12-5.373 12-12c0-6.628-5.373-12-12-12zm0 22.46c-1.885 0-3.414-1.26-3.414-2.814h6.828c0 1.553-1.528 2.813-3.414 2.813zm5.64-3.745H6.36v-2.046h11.28v2.046zm-.04-3.098H6.391c-.037-.043-.075-.086-.111-.13-1.155-1.401-1.427-2.133-1.69-2.879-.005-.025 1.4.287 2.395.511 0 0 .513.119 1.262.255-.72-.843-1.147-1.915-1.147-3.01 0-2.406 1.845-4.508 1.18-6.207.648.053 1.34 1.367 1.387 3.422.689-.951.977-2.69.977-3.755 0-1.103.727-2.385 1.454-2.429-.648 1.069.168 1.984.894 4.256.272.854.237 2.29.447 3.201.07-1.892.395-4.652 1.595-5.605-.529 1.2.079 2.702.494 3.424.671 1.164 1.078 2.047 1.078 3.716a4.642 4.642 0 01-1.11 2.996c.792-.149 1.34-.283 1.34-.283l2.573-.502s-.374 1.538-1.81 3.019z"/></svg><text x="241.0" y="745.0" text-anchor="middle" font-family="Segoe UI, Roboto, Helvetica, Arial, sans-serif" font-size="12.5" font-weight="600" fill="#1E293B">Prometheus</text><text x="241.0" y="759.5" text-anchor="middle" font-family="Segoe UI, Roboto, Helvetica, Arial, sans-serif" font-size="12.5" font-weight="600" fill="#1E293B">metrics</text><rect x="435.0" y="691.0" width="212" height="88" rx="13" fill="#0F172A" opacity="0.06"/><rect x="434.0" y="688" width="212" height="88" rx="13" fill="#FFFFFF" stroke="#E2E8F0" stroke-width="1.2"/><rect x="434.0" y="688" width="212" height="4" rx="2" fill="#8B5CF6"/><svg x="525.0" y="701.0" width="30.0" height="30.0" viewBox="0 0 24 24"><path fill="#F46800" d="M23.02 10.59a8.578 8.578 0 0 0-.862-3.034 8.911 8.911 0 0 0-1.789-2.445c.337-1.342-.413-2.505-.413-2.505-1.292-.08-2.113.4-2.416.62-.052-.02-.102-.044-.154-.064-.22-.089-.446-.172-.677-.247-.231-.073-.47-.14-.711-.197a9.867 9.867 0 0 0-.875-.161C14.557.753 12.94 0 12.94 0c-1.804 1.145-2.147 2.744-2.147 2.744l-.018.093c-.098.029-.2.057-.298.088-.138.042-.275.094-.413.143-.138.055-.275.107-.41.166a8.869 8.869 0 0 0-1.557.87l-.063-.029c-2.497-.955-4.716.195-4.716.195-.203 2.658.996 4.33 1.235 4.636a11.608 11.608 0 0 0-.607 2.635C1.636 12.677.953 15.014.953 15.014c1.926 2.214 4.171 2.351 4.171 2.351.003-.002.006-.002.006-.005.285.509.615.994.986 1.446.156.19.32.371.488.548-.704 2.009.099 3.68.099 3.68 2.144.08 3.553-.937 3.849-1.173a9.784 9.784 0 0 0 3.164.501h.08l.055-.003.107-.002.103-.005.003.002c1.01 1.44 2.788 1.646 2.788 1.646 1.264-1.332 1.337-2.653 1.337-2.94v-.058c0-.02-.003-.039-.003-.06.265-.187.52-.387.758-.6a7.875 7.875 0 0 0 1.415-1.7c1.43.083 2.437-.885 2.437-.885-.236-1.49-1.085-2.216-1.264-2.354l-.018-.013-.016-.013a.217.217 0 0 1-.031-.02c.008-.092.016-.18.02-.27.011-.162.016-.323.016-.48v-.253l-.005-.098-.008-.135a1.891 1.891 0 0 0-.01-.13c-.003-.042-.008-.083-.013-.125l-.016-.124-.018-.122a6.215 6.215 0 0 0-2.032-3.73 6.015 6.015 0 0 0-3.222-1.46 6.292 6.292 0 0 0-.85-.048l-.107.002h-.063l-.044.003-.104.008a4.777 4.777 0 0 0-3.335 1.695c-.332.4-.592.84-.768 1.297a4.594 4.594 0 0 0-.312 1.817l.003.091c.005.055.007.11.013.164a3.615 3.615 0 0 0 .698 1.82 3.53 3.53 0 0 0 1.827 1.282c.33.098.66.14.971.137.039 0 .078 0 .114-.002l.063-.003c.02 0 .041-.003.062-.003.034-.002.065-.007.099-.01.007 0 .018-.003.028-.003l.031-.005.06-.008a1.18 1.18 0 0 0 .112-.02c.036-.008.072-.013.109-.024a2.634 2.634 0 0 0 .914-.415c.028-.02.056-.041.085-.065a.248.248 0 0 0 .039-.35.244.244 0 0 0-.309-.06l-.078.042c-.09.044-.184.083-.283.116a2.476 2.476 0 0 1-.475.096c-.028.003-.054.006-.083.006l-.083.002c-.026 0-.054 0-.08-.002l-.102-.006h-.012l-.024.006c-.016-.003-.031-.003-.044-.006-.031-.002-.06-.007-.091-.01a2.59 2.59 0 0 1-.724-.213 2.557 2.557 0 0 1-.667-.438 2.52 2.52 0 0 1-.805-1.475 2.306 2.306 0 0 1-.029-.444l.006-.122v-.023l.002-.031c.003-.021.003-.04.005-.06a3.163 3.163 0 0 1 1.352-2.29 3.12 3.12 0 0 1 .937-.43 2.946 2.946 0 0 1 .776-.101h.06l.07.002.045.003h.026l.07.005a4.041 4.041 0 0 1 1.635.49 3.94 3.94 0 0 1 1.602 1.662 3.77 3.77 0 0 1 .397 1.414l.005.076.003.075c.002.026.002.05.002.075 0 .024.003.052 0 .07v.065l-.002.073-.008.174a6.195 6.195 0 0 1-.08.639 5.1 5.1 0 0 1-.267.927 5.31 5.31 0 0 1-.624 1.13 5.052 5.052 0 0 1-3.237 2.014 4.82 4.82 0 0 1-.649.066l-.039.003h-.287a6.607 6.607 0 0 1-1.716-.265 6.776 6.776 0 0 1-3.4-2.274 6.75 6.75 0 0 1-.746-1.15 6.616 6.616 0 0 1-.714-2.596l-.005-.083-.002-.02v-.056l-.003-.073v-.096l-.003-.104v-.07l.003-.163c.008-.22.026-.45.054-.678a8.707 8.707 0 0 1 .28-1.355c.128-.444.286-.872.473-1.277a7.04 7.04 0 0 1 1.456-2.1 5.925 5.925 0 0 1 .953-.763c.169-.111.343-.213.524-.306.089-.05.182-.091.273-.135.047-.02.093-.042.138-.062a7.177 7.177 0 0 1 .714-.267l.145-.045c.049-.015.098-.026.148-.041.098-.029.197-.052.296-.076.049-.013.1-.02.15-.033l.15-.032.151-.028.076-.013.075-.01.153-.024c.057-.01.114-.013.171-.023l.169-.021c.036-.003.073-.008.106-.01l.073-.008.036-.003.042-.002c.057-.003.114-.008.171-.01l.086-.006h.023l.037-.003.145-.007a7.999 7.999 0 0 1 1.708.125 7.917 7.917 0 0 1 2.048.68 8.253 8.253 0 0 1 1.672 1.09l.09.077.089.078c.06.052.114.107.171.159.057.052.112.106.166.16.052.055.107.107.159.164a8.671 8.671 0 0 1 1.41 1.978c.012.026.028.052.04.078l.04.078.075.156c.023.051.05.1.07.153l.065.15a8.848 8.848 0 0 1 .45 1.34.19.19 0 0 0 .201.142.186.186 0 0 0 .172-.184c.01-.246.002-.532-.024-.856z"/></svg><text x="540.0" y="745.0" text-anchor="middle" font-family="Segoe UI, Roboto, Helvetica, Arial, sans-serif" font-size="12.5" font-weight="600" fill="#1E293B">Grafana</text><text x="540.0" y="759.5" text-anchor="middle" font-family="Segoe UI, Roboto, Helvetica, Arial, sans-serif" font-size="12.5" font-weight="600" fill="#1E293B">dashboards</text><rect x="734.0" y="691.0" width="212" height="88" rx="13" fill="#0F172A" opacity="0.06"/><rect x="733.0" y="688" width="212" height="88" rx="13" fill="#FFFFFF" stroke="#E2E8F0" stroke-width="1.2"/><rect x="733.0" y="688" width="212" height="4" rx="2" fill="#8B5CF6"/><svg x="824.0" y="701.0" width="30.0" height="30.0" viewBox="0 0 24 24"><path fill="#0194E2" d="M11.883.002a12.044 12.044 0 0 0-9.326 19.463l3.668-2.694A7.573 7.573 0 0 1 12.043 4.45v2.867l6.908-5.14A12.012 12.012 0 0 0 11.883.002zm9.562 4.533L17.777 7.23a7.573 7.573 0 0 1-5.818 12.322v-2.867l-6.908 5.14a12.046 12.046 0 0 0 16.394-17.29z"/></svg><text x="839.0" y="745.0" text-anchor="middle" font-family="Segoe UI, Roboto, Helvetica, Arial, sans-serif" font-size="12.5" font-weight="600" fill="#1E293B">MLflow</text><text x="839.0" y="759.5" text-anchor="middle" font-family="Segoe UI, Roboto, Helvetica, Arial, sans-serif" font-size="12.5" font-weight="600" fill="#1E293B">model tracking</text><line x1="540.0" y1="204" x2="540.0" y2="223" stroke="#94A3B8" stroke-width="2.2"/><path d="M534.0,223 L546.0,223 L540.0,232 Z" fill="#94A3B8"/><rect x="494.2" y="208.0" width="92" height="20" rx="10" fill="#FFFFFF" stroke="#E2E8F0"/><text x="540.0" y="222.0" text-anchor="middle" font-family="Segoe UI, Roboto, Helvetica, Arial, sans-serif" font-size="11" font-weight="600" fill="#475569">measurements</text><line x1="540.0" y1="382" x2="540.0" y2="407" stroke="#94A3B8" stroke-width="2.2"/><path d="M534.0,407 L546.0,407 L540.0,416 Z" fill="#94A3B8"/><rect x="509.9" y="389.0" width="60" height="20" rx="10" fill="#FFFFFF" stroke="#E2E8F0"/><text x="540.0" y="403.0" text-anchor="middle" font-family="Segoe UI, Roboto, Helvetica, Arial, sans-serif" font-size="11" font-weight="600" fill="#475569">persist</text><line x1="540.0" y1="520" x2="540.0" y2="539" stroke="#94A3B8" stroke-width="2.2"/><path d="M534.0,539 L546.0,539 L540.0,548 Z" fill="#94A3B8"/><rect x="487.9" y="524.0" width="104" height="20" rx="10" fill="#FFFFFF" stroke="#E2E8F0"/><text x="540.0" y="538.0" text-anchor="middle" font-family="Segoe UI, Roboto, Helvetica, Arial, sans-serif" font-size="11" font-weight="600" fill="#475569">detect → alert</text><line x1="540.0" y1="652" x2="540.0" y2="671" stroke="#CBD5E1" stroke-width="2.2"/><path d="M534.0,671 L546.0,671 L540.0,680 Z" fill="#CBD5E1"/><rect x="503.6" y="656.0" width="73" height="20" rx="10" fill="#FFFFFF" stroke="#E2E8F0"/><text x="540.0" y="670.0" text-anchor="middle" font-family="Segoe UI, Roboto, Helvetica, Arial, sans-serif" font-size="11" font-weight="600" fill="#475569">telemetry</text><rect x="32" y="792" width="1016" height="34" rx="10" fill="#0B1220"/><svg x="49.0" y="798.0" width="22.0" height="22.0" viewBox="0 0 24 24"><path fill="#2496ED" d="M13.983 11.078h2.119a.186.186 0 00.186-.185V9.006a.186.186 0 00-.186-.186h-2.119a.185.185 0 00-.185.185v1.888c0 .102.083.185.185.185m-2.954-5.43h2.118a.186.186 0 00.186-.186V3.574a.186.186 0 00-.186-.185h-2.118a.185.185 0 00-.185.185v1.888c0 .102.082.185.185.185m0 2.716h2.118a.187.187 0 00.186-.186V6.29a.186.186 0 00-.186-.185h-2.118a.185.185 0 00-.185.185v1.887c0 .102.082.185.185.186m-2.93 0h2.12a.186.186 0 00.184-.186V6.29a.185.185 0 00-.185-.185H8.1a.185.185 0 00-.185.185v1.887c0 .102.083.185.185.186m-2.964 0h2.119a.186.186 0 00.185-.186V6.29a.185.185 0 00-.185-.185H5.136a.186.186 0 00-.186.185v1.887c0 .102.084.185.186.186m5.893 2.715h2.118a.186.186 0 00.186-.185V9.006a.186.186 0 00-.186-.186h-2.118a.185.185 0 00-.185.185v1.888c0 .102.082.185.185.185m-2.93 0h2.12a.185.185 0 00.184-.185V9.006a.185.185 0 00-.184-.186h-2.12a.185.185 0 00-.184.185v1.888c0 .102.083.185.185.185m-2.964 0h2.119a.185.185 0 00.185-.185V9.006a.185.185 0 00-.184-.186h-2.12a.186.186 0 00-.186.186v1.887c0 .102.084.185.186.185m-2.92 0h2.12a.185.185 0 00.184-.185V9.006a.185.185 0 00-.184-.186h-2.12a.185.185 0 00-.184.185v1.888c0 .102.082.185.185.185M23.763 9.89c-.065-.051-.672-.51-1.954-.51-.338.001-.676.03-1.01.087-.248-1.7-1.653-2.53-1.716-2.566l-.344-.199-.226.327c-.284.438-.49.922-.612 1.43-.23.97-.09 1.882.403 2.661-.595.332-1.55.413-1.744.42H.751a.751.751 0 00-.75.748 11.376 11.376 0 00.692 4.062c.545 1.428 1.355 2.48 2.41 3.124 1.18.723 3.1 1.137 5.275 1.137.983.003 1.963-.086 2.93-.266a12.248 12.248 0 003.823-1.389c.98-.567 1.86-1.288 2.61-2.136 1.252-1.418 1.998-2.997 2.553-4.4h.221c1.372 0 2.215-.549 2.68-1.009.309-.293.55-.65.707-1.046l.098-.288Z"/></svg><text x="80.0" y="813.0" text-anchor="start" font-family="Segoe UI, Roboto, Helvetica, Arial, sans-serif" font-size="12" font-weight="600" fill="#E2E8F0">All services orchestrated by Docker Compose — one command to run the whole stack</text></svg>